<svg id="svg" version="1.1" xmlns="http://www.w3.org/2000/svg" xmlns:xlink="http://www.w3.org/1999/xlink" width="400" height="400" viewBox="0, 0, 400,400"><g id="svgg"><path id="path0" d="M0.000 80.696 L 0.000 161.392 7.102 154.298 L 14.205 147.203 66.202 199.202 C 94.800 227.801,118.379 251.193,118.599 251.185 C 118.820 251.176,127.190 243.091,137.200 233.217 L 155.400 215.265 103.200 163.015 C 74.490 134.277,50.910 110.666,50.800 110.545 C 50.690 110.423,57.260 103.779,65.400 95.780 L 80.200 81.235 132.499 133.516 L 184.798 185.797 198.543 172.057 L 212.288 158.317 227.001 172.999 L 241.715 187.681 227.975 201.425 C 220.418 208.984,214.378 215.311,214.551 215.484 C 214.725 215.658,226.306 227.320,240.286 241.400 C 254.266 255.480,277.605 278.925,292.150 293.501 L 318.594 320.002 303.999 334.601 C 295.972 342.630,289.292 349.200,289.156 349.200 C 288.865 349.200,247.879 308.214,210.767 270.811 L 184.782 244.621 166.591 262.809 C 156.586 272.812,148.400 281.200,148.400 281.449 C 148.400 281.698,171.900 305.266,200.623 333.824 L 252.846 385.746 246.223 392.377 C 242.580 396.024,239.600 399.232,239.600 399.504 C 239.600 399.897,256.277 400.000,319.800 400.000 L 400.000 400.000 400.000 200.000 L 400.000 0.000 200.000 0.000 L 0.000 0.000 0.000 80.696 M361.200 172.499 L 361.200 306.597 340.400 285.800 L 319.600 265.003 319.600 252.670 L 319.600 240.336 239.700 160.172 L 159.800 80.009 147.400 79.998 L 135.000 79.987 114.216 59.194 L 93.432 38.400 227.316 38.400 L 361.200 38.400 361.200 172.499 M219.453 80.280 C 219.298 80.436,241.627 103.022,269.074 130.473 C 296.521 157.923,319.119 180.241,319.290 180.070 C 319.462 179.898,319.557 157.357,319.502 129.978 L 319.400 80.200 269.568 80.098 C 242.161 80.043,219.609 80.124,219.453 80.280 M0.000 296.000 L 0.000 400.000 103.600 400.000 C 202.000 400.000,207.200 399.965,207.200 399.300 C 207.200 398.915,204.635 396.134,201.500 393.119 C 198.365 390.105,166.460 358.262,130.600 322.358 C 94.740 286.453,60.386 252.109,54.257 246.038 C 48.129 239.967,41.289 233.123,39.057 230.829 C 31.105 222.654,0.450 192.000,0.227 192.000 C 0.102 192.000,0.000 238.800,0.000 296.000 " stroke="none" fill="#638c64" fill-rule="evenodd"></path><path id="path1" d="M114.216 59.194 L 135.000 79.987 147.400 79.998 L 159.800 80.009 239.700 160.172 L 319.600 240.336 319.600 252.670 L 319.600 265.003 340.400 285.800 L 361.200 306.597 361.200 172.499 L 361.200 38.400 227.316 38.400 L 93.432 38.400 114.216 59.194 M319.502 129.978 C 319.557 157.357,319.462 179.898,319.290 180.070 C 319.119 180.241,296.521 157.923,269.074 130.473 C 241.627 103.022,219.298 80.436,219.453 80.280 C 219.609 80.124,242.161 80.043,269.568 80.098 L 319.400 80.200 319.502 129.978 M65.200 95.840 C 57.170 103.805,50.690 110.422,50.800 110.544 C 50.910 110.665,74.490 134.277,103.200 163.015 L 155.400 215.265 137.200 233.217 C 127.190 243.091,118.820 251.176,118.599 251.185 C 118.379 251.193,94.800 227.801,66.202 199.202 L 14.205 147.203 7.102 154.298 L 0.000 161.392 0.000 176.474 L 0.000 191.557 17.500 209.106 C 27.125 218.758,36.826 228.533,39.057 230.828 C 41.289 233.122,48.129 239.967,54.257 246.038 C 60.386 252.109,94.740 286.453,130.600 322.358 C 166.460 358.262,198.365 390.105,201.500 393.119 C 204.635 396.134,207.200 398.915,207.200 399.300 C 207.200 399.955,208.238 400.000,223.400 400.000 C 236.019 400.000,239.600 399.890,239.600 399.504 C 239.600 399.232,242.580 396.024,246.223 392.377 L 252.846 385.746 200.623 333.824 C 171.900 305.266,148.400 281.698,148.400 281.449 C 148.400 281.200,156.586 272.812,166.591 262.809 L 184.782 244.621 210.767 270.811 C 247.879 308.214,288.865 349.200,289.156 349.200 C 289.292 349.200,295.972 342.630,303.999 334.601 L 318.594 320.002 292.150 293.501 C 277.605 278.925,254.266 255.480,240.286 241.400 C 226.306 227.320,214.725 215.658,214.551 215.484 C 214.378 215.311,220.418 208.984,227.975 201.425 L 241.715 187.681 227.001 172.999 L 212.288 158.317 198.543 172.057 L 184.798 185.797 132.499 133.499 C 103.734 104.734,80.109 81.236,79.999 81.279 C 79.890 81.322,73.230 87.875,65.200 95.840 " stroke="none" fill="#fbfbfb" fill-rule="evenodd"></path></g></svg>